<svg width="101" height="109" viewBox="0 0 101 109" fill="none" xmlns="http://www.w3.org/2000/svg">
<path d="M28.9572 101.084C20.749 97.393 -6.83302 90.4574 1.77436 71.3169C10.3817 52.1764 24.2593 39.7628 42.8961 48.1436C61.533 56.5245 69.6634 78.835 61.056 97.9755C52.4487 117.116 37.1654 104.775 28.9572 101.084Z" fill="black"/>
<path d="M65.2989 36.6614C60.176 45.5016 54.2913 49.9803 48.4702 46.6069C42.649 43.2334 42.0829 33.3324 47.2059 24.4922C52.3288 15.6521 61.2008 11.2205 67.022 14.5939C72.8431 17.9673 70.4218 27.8213 65.2989 36.6614Z" fill="black"/>
<path d="M94.8888 66.0489C86.7922 72.2808 76.9018 73.0106 72.7982 67.679C68.6945 62.3474 71.9314 52.9733 80.0281 46.7414C88.1247 40.5095 92.2478 37.0015 96.3515 42.3331C100.455 47.6648 102.985 59.817 94.8888 66.0489Z" fill="black"/>
<path d="M33.2571 13.9023C34.0309 24.0902 29.4475 37.3157 22.9232 37.8113C16.3988 38.3068 7.96467 31.1295 7.19088 20.9416C6.41709 10.7537 13.5967 1.41305 20.121 0.917513C26.6454 0.421974 32.4833 3.71435 33.2571 13.9023Z" fill="black"/>
</svg>