<svg width="326" height="105" viewBox="0 0 326 105" fill="none" xmlns="http://www.w3.org/2000/svg">
<path d="M143.448 41.2C147.288 41.2 150.296 42.16 152.472 44.08C154.648 46 155.736 48.688 155.736 52.144C155.736 53.52 155.528 54.88 155.112 56.224C154.696 57.568 154.024 58.8 153.096 59.92C152.2 61.008 151 61.888 149.496 62.56C148.024 63.2 146.216 63.52 144.072 63.52H138.936V76H133.944V41.2H143.448ZM144.024 58.624C145.336 58.624 146.424 58.416 147.288 58C148.184 57.552 148.872 56.992 149.352 56.32C149.864 55.648 150.216 54.944 150.408 54.208C150.632 53.472 150.744 52.816 150.744 52.24C150.744 51.6 150.632 50.928 150.408 50.224C150.216 49.488 149.864 48.816 149.352 48.208C148.872 47.568 148.216 47.056 147.384 46.672C146.552 46.256 145.512 46.048 144.264 46.048H138.936V58.624H144.024ZM171.075 76.48C168.771 76.48 166.787 76.032 165.123 75.136C163.459 74.208 162.179 72.944 161.283 71.344C160.387 69.712 159.939 67.872 159.939 65.824C159.939 63.84 160.435 62.048 161.427 60.448C162.451 58.816 163.811 57.52 165.507 56.56C167.203 55.6 169.091 55.12 171.171 55.12C173.859 55.12 176.083 55.904 177.843 57.472C179.635 59.008 180.835 61.184 181.443 64L165.075 69.664L163.923 66.88L177.075 62.08L176.067 62.752C175.683 61.728 175.075 60.848 174.243 60.112C173.411 59.344 172.275 58.96 170.835 58.96C169.043 58.96 167.571 59.584 166.419 60.832C165.299 62.048 164.739 63.616 164.739 65.536C164.739 67.584 165.347 69.232 166.563 70.48C167.779 71.728 169.315 72.352 171.171 72.352C172.035 72.352 172.867 72.208 173.667 71.92C174.467 71.6 175.219 71.184 175.923 70.672L178.131 74.272C177.107 74.944 175.971 75.488 174.723 75.904C173.507 76.288 172.291 76.48 171.075 76.48ZM188.806 47.152H193.702V55.984H199.078V59.776H193.702V76H188.806V59.776H185.254V55.984H188.806V47.152ZM210.225 76.432C208.753 76.432 207.345 76.176 206.001 75.664C204.657 75.12 203.521 74.352 202.593 73.36L204.657 70.576C205.489 71.376 206.353 71.984 207.249 72.4C208.177 72.816 209.041 73.024 209.841 73.024C210.769 73.024 211.585 72.848 212.289 72.496C212.993 72.112 213.345 71.488 213.345 70.624C213.345 69.92 213.105 69.376 212.625 68.992C212.177 68.608 211.601 68.288 210.897 68.032C210.193 67.776 209.441 67.536 208.641 67.312C206.977 66.768 205.697 66 204.801 65.008C203.937 63.984 203.505 62.784 203.505 61.408C203.505 60.352 203.761 59.36 204.273 58.432C204.817 57.472 205.633 56.704 206.721 56.128C207.809 55.52 209.153 55.216 210.753 55.216C212.161 55.216 213.425 55.392 214.545 55.744C215.665 56.064 216.705 56.624 217.665 57.424L215.793 60.352C215.217 59.776 214.529 59.344 213.729 59.056C212.961 58.736 212.257 58.56 211.617 58.528C210.753 58.528 210.001 58.736 209.361 59.152C208.721 59.536 208.401 60.064 208.401 60.736C208.401 61.408 208.625 61.952 209.073 62.368C209.521 62.752 210.097 63.072 210.801 63.328C211.537 63.552 212.273 63.792 213.009 64.048C214.481 64.528 215.697 65.184 216.657 66.016C217.649 66.848 218.145 68.064 218.145 69.664C218.145 70.88 217.857 72 217.281 73.024C216.705 74.048 215.825 74.88 214.641 75.52C213.489 76.128 212.017 76.432 210.225 76.432ZM231.678 41.2H236.67V71.152H254.142V76H231.678V41.2ZM267.114 76C266.854 75.34 266.584 74.73 266.304 74.17C266.044 73.59 265.714 72.97 265.314 72.31C264.914 71.65 264.414 70.88 263.814 70C263.214 69.12 262.454 68.05 261.534 66.79C260.354 65.17 259.514 63.78 259.014 62.62C258.514 61.46 258.264 60.33 258.264 59.23C258.264 58.35 258.484 57.55 258.924 56.83C259.384 56.09 259.984 55.51 260.724 55.09C261.484 54.65 262.304 54.43 263.184 54.43C264.124 54.43 264.994 54.67 265.794 55.15C266.614 55.63 267.284 56.36 267.804 57.34C268.344 56.36 269.024 55.63 269.844 55.15C270.664 54.67 271.544 54.43 272.484 54.43C273.344 54.43 274.144 54.65 274.884 55.09C275.644 55.51 276.254 56.09 276.714 56.83C277.174 57.55 277.404 58.35 277.404 59.23C277.404 59.93 277.304 60.65 277.104 61.39C276.924 62.11 276.594 62.91 276.114 63.79C275.634 64.65 274.974 65.66 274.134 66.82C273.214 68.1 272.444 69.19 271.824 70.09C271.204 70.97 270.694 71.74 270.294 72.4C269.914 73.06 269.584 73.67 269.304 74.23C269.024 74.79 268.764 75.38 268.524 76H267.114ZM267.804 73.39C268.184 72.63 268.694 71.75 269.334 70.75C269.994 69.75 270.764 68.64 271.644 67.42C272.524 66.2 273.244 65.15 273.804 64.27C274.364 63.39 274.764 62.69 275.004 62.17C275.484 61.11 275.724 60.13 275.724 59.23C275.724 58.65 275.574 58.13 275.274 57.67C274.974 57.19 274.574 56.81 274.074 56.53C273.594 56.25 273.064 56.11 272.484 56.11C271.624 56.11 270.844 56.47 270.144 57.19C269.444 57.89 268.924 58.86 268.584 60.1H267.054C266.674 58.74 266.134 57.74 265.434 57.1C264.754 56.44 264.004 56.11 263.184 56.11C262.624 56.11 262.094 56.25 261.594 56.53C261.094 56.81 260.694 57.19 260.394 57.67C260.094 58.13 259.944 58.65 259.944 59.23C259.944 60.07 260.174 61.03 260.634 62.11C261.074 63.13 262.174 64.84 263.934 67.24C264.814 68.4 265.574 69.5 266.214 70.54C266.854 71.56 267.384 72.51 267.804 73.39ZM291.085 76.576L279.805 55.936H285.517L292.957 71.536L289.981 71.392L296.749 55.936H302.125L291.325 76.576H291.085ZM315.626 76.48C313.322 76.48 311.338 76.032 309.674 75.136C308.01 74.208 306.73 72.944 305.834 71.344C304.938 69.712 304.49 67.872 304.49 65.824C304.49 63.84 304.986 62.048 305.978 60.448C307.002 58.816 308.362 57.52 310.058 56.56C311.754 55.6 313.642 55.12 315.722 55.12C318.41 55.12 320.634 55.904 322.394 57.472C324.186 59.008 325.386 61.184 325.994 64L309.626 69.664L308.474 66.88L321.626 62.08L320.618 62.752C320.234 61.728 319.626 60.848 318.794 60.112C317.962 59.344 316.826 58.96 315.386 58.96C313.594 58.96 312.122 59.584 310.97 60.832C309.85 62.048 309.29 63.616 309.29 65.536C309.29 67.584 309.898 69.232 311.114 70.48C312.33 71.728 313.866 72.352 315.722 72.352C316.586 72.352 317.418 72.208 318.218 71.92C319.018 71.6 319.77 71.184 320.474 70.672L322.682 74.272C321.658 74.944 320.522 75.488 319.274 75.904C318.058 76.288 316.842 76.48 315.626 76.48Z" fill="black"/>
<path d="M99.22 81.8809C93.5164 88.8429 79.6296 113.663 63.3951 100.363C47.1607 87.0629 38.7944 70.4289 51.7444 54.6216C64.6943 38.8143 88.3529 36.7817 104.587 50.0816C120.822 63.3816 104.924 74.9189 99.22 81.8809Z" fill="black"/>
<path d="M46.5 30C53.6988 37.2505 56.4884 44.0993 51.714 48.8397C46.9395 53.58 37.2333 51.5451 30.0345 44.2946C22.8358 37.0441 20.8704 27.3236 25.6449 22.5832C30.4193 17.8428 39.3012 22.7495 46.5 30Z" fill="black"/>
<path d="M82.5856 9.09516C86.4911 18.5366 84.6171 28.2751 78.4 30.8468C72.1829 33.4186 63.9769 27.8496 60.0715 18.4082C56.166 8.96682 53.8543 4.07173 60.0715 1.5C66.2886 -1.07173 78.6802 -0.346232 82.5856 9.09516Z" fill="black"/>
<path d="M16.1742 55C26.2115 56.9091 37.7847 64.782 36.5621 71.21C35.3395 77.6379 26.2115 83.9091 16.1742 82C6.13686 80.0909 -1.00889 70.7244 0.213713 64.2965C1.43631 57.8685 6.13686 53.0909 16.1742 55Z" fill="black"/>
</svg>