
<svg width="211" height="513" viewBox="0 0 211 513" fill="none" xmlns="http://www.w3.org/2000/svg">
<path d="M99.22 228.881C93.5164 235.843 79.6296 260.663 63.3951 247.363C47.1607 234.063 38.7944 217.429 51.7444 201.622C64.6943 185.814 88.3529 183.782 104.587 197.082C120.822 210.382 104.924 221.919 99.22 228.881Z" fill="black"/>
<path d="M46.5 177C53.6988 184.25 56.4884 191.099 51.714 195.84C46.9395 200.58 37.2333 198.545 30.0345 191.295C22.8358 184.044 20.8704 174.324 25.6449 169.583C30.4193 164.843 39.3012 169.749 46.5 177Z" fill="black"/>
<path d="M82.5856 156.095C86.4911 165.537 84.6171 175.275 78.4 177.847C72.1829 180.419 63.9769 174.85 60.0715 165.408C56.166 155.967 53.8543 151.072 60.0715 148.5C66.2886 145.928 78.6802 146.654 82.5856 156.095Z" fill="black"/>
<path d="M16.1742 202C26.2115 203.909 37.7847 211.782 36.5621 218.21C35.3395 224.638 26.2115 230.909 16.1742 229C6.13686 227.091 -1.00889 217.724 0.21371 211.297C1.43631 204.869 6.13686 200.091 16.1742 202Z" fill="black"/>
<g clip-path="url(#clip0_0_1)">
<path d="M115.167 99.3071C108.227 93.5771 83.46 79.5961 96.8215 63.4123C110.183 47.2285 126.849 38.9254 142.607 51.9353C158.365 64.9451 160.308 88.6112 146.946 104.795C133.585 120.979 122.108 105.037 115.167 99.3071Z" fill="black"/>
<path d="M167.248 46.7844C159.97 53.9556 153.111 56.7192 148.389 51.9268C143.667 47.1344 145.738 37.436 153.016 30.2647C160.294 23.0936 170.022 21.1651 174.744 25.9576C179.466 30.75 174.526 39.6132 167.248 46.7844Z" fill="black"/>
<path d="M188.016 82.9491C178.56 86.8187 168.828 84.9078 166.28 78.6809C163.732 72.4541 169.332 64.2693 178.788 60.3998C188.244 56.5302 193.148 54.2371 195.696 60.464C198.245 66.6908 197.472 79.0796 188.016 82.9491Z" fill="black"/>
<path d="M142.363 16.3639C140.416 26.3939 132.499 37.9371 126.076 36.6901C119.653 35.4431 113.416 26.2914 115.364 16.2614C117.311 6.23138 126.704 -0.878756 133.128 0.368241C139.551 1.61523 144.311 6.33389 142.363 16.3639Z" fill="black"/>
</g>
<g clip-path="url(#clip1_0_1)">
<path d="M113.22 489.717C107.516 496.679 93.6296 521.499 77.3951 508.199C61.1607 494.899 52.7944 478.265 65.7444 462.458C78.6943 446.651 102.353 444.618 118.587 457.918C134.822 471.218 118.924 482.755 113.22 489.717Z" fill="black"/>
<path d="M60.5 437.836C67.6988 445.087 70.4884 451.936 65.714 456.676C60.9395 461.416 51.2333 459.382 44.0345 452.131C36.8358 444.881 34.8704 435.16 39.6449 430.42C44.4193 425.679 53.3012 430.586 60.5 437.836Z" fill="black"/>
<path d="M96.5856 416.932C100.491 426.373 98.6171 436.112 92.4 438.683C86.1829 441.255 77.9769 435.686 74.0715 426.245C70.166 416.803 67.8543 411.908 74.0715 409.336C80.2886 406.765 92.6802 407.49 96.5856 416.932Z" fill="black"/>
<path d="M30.1742 462.836C40.2115 464.746 51.7847 472.618 50.5621 479.046C49.3395 485.474 40.2115 491.746 30.1742 489.836C20.1369 487.927 12.9911 478.561 14.2137 472.133C15.4363 465.705 20.1369 460.927 30.1742 462.836Z" fill="black"/>
</g>
<path d="M129.167 360.144C122.227 354.414 97.46 340.433 110.821 324.249C124.183 308.065 140.849 299.762 156.607 312.772C172.365 325.782 174.308 349.448 160.946 365.631C147.585 381.816 136.108 365.874 129.167 360.144Z" fill="black"/>
<path d="M181.248 307.621C173.97 314.792 167.111 317.556 162.389 312.763C157.667 307.971 159.738 298.272 167.016 291.101C174.294 283.93 184.022 282.002 188.744 286.794C193.466 291.586 188.526 300.45 181.248 307.621Z" fill="black"/>
<path d="M202.016 343.786C192.56 347.655 182.828 345.744 180.28 339.517C177.732 333.291 183.332 325.106 192.788 321.236C202.244 317.367 207.148 315.074 209.696 321.3C212.245 327.527 211.472 339.916 202.016 343.786Z" fill="black"/>
<path d="M156.363 277.2C154.416 287.23 146.499 298.774 140.076 297.527C133.653 296.28 127.416 287.128 129.364 277.098C131.311 267.068 140.704 259.958 147.128 261.205C153.551 262.452 158.311 267.17 156.363 277.2Z" fill="black"/>
<defs>
<clipPath id="clip0_0_1">
<rect width="112" height="105" fill="white" transform="translate(197.424 0.398621) rotate(90.2175)"/>
</clipPath>
<clipPath id="clip1_0_1">
<rect width="112" height="105" fill="white" transform="translate(14 407.836)"/>
</clipPath>
</defs>
</svg>
