<svg width="112" height="105" viewBox="0 0 112 105" fill="none" xmlns="http://www.w3.org/2000/svg">
<path d="M99.22 81.8809C93.5164 88.8429 79.6296 113.663 63.3951 100.363C47.1607 87.0629 38.7944 70.4289 51.7444 54.6216C64.6943 38.8143 88.3529 36.7817 104.587 50.0816C120.822 63.3816 104.924 74.9189 99.22 81.8809Z" fill="black"/>
<path d="M46.5 30C53.6988 37.2505 56.4884 44.0993 51.714 48.8397C46.9395 53.58 37.2333 51.5451 30.0345 44.2946C22.8358 37.0441 20.8704 27.3236 25.6449 22.5832C30.4193 17.8428 39.3012 22.7495 46.5 30Z" fill="black"/>
<path d="M82.5856 9.09516C86.4911 18.5366 84.6171 28.2751 78.4 30.8468C72.1829 33.4186 63.9769 27.8496 60.0715 18.4082C56.166 8.96682 53.8543 4.07173 60.0715 1.5C66.2886 -1.07173 78.6802 -0.346232 82.5856 9.09516Z" fill="black"/>
<path d="M16.1742 55C26.2115 56.9091 37.7847 64.782 36.5621 71.21C35.3395 77.6379 26.2115 83.9091 16.1742 82C6.13686 80.0909 -1.00889 70.7244 0.213713 64.2965C1.43631 57.8685 6.13686 53.0909 16.1742 55Z" fill="black"/>
</svg>
